<svg xmlns="http://www.w3.org/2000/svg" viewBox="0 0 900 360" role="img" aria-labelledby="title desc"><title id="title">计数、比较匹配与更新事件</title><desc id="desc">边沿对齐向上计数及百分之二十五占空比 PWM。</desc><defs><marker id="arrow" viewBox="0 0 10 10" refX="9" refY="5" markerWidth="7" markerHeight="7" orient="auto-start-reverse"><path d="M 0 0 L 10 5 L 0 10 z" fill="#243b47"/></marker></defs><rect width="900" height="360" fill="#fafbf9"/><g font-family="Arial, 'Microsoft YaHei', sans-serif"><text x="30" y="35" font-size="19" fill="#21645d" text-anchor="start">计数、比较匹配与更新事件</text><polyline points="80,170 325,75 325,170 330,170 575,75 575,170 580,170 825,75 825,170" fill="none" stroke="#21645d" stroke-width="3" /><text x="20" y="82" font-size="16" fill="#243b47" text-anchor="start">ARR</text><text x="40" y="177" font-size="16" fill="#243b47" text-anchor="start">0</text><line x1="75" y1="175" x2="850" y2="175" stroke="#243b47" stroke-width="2" marker-end="url(#arrow)" /><text x="35" y="220" font-size="17" fill="#243b47" text-anchor="start">PWM</text><polyline points="80,248 80,215 142.5,215 142.5,248 330,248" fill="none" stroke="#345d91" stroke-width="3" /><line x1="325" y1="180" x2="325" y2="290" stroke="#a15430" stroke-width="2"  stroke-dasharray="4 4"/><polyline points="330,248 330,215 392.5,215 392.5,248 580,248" fill="none" stroke="#345d91" stroke-width="3" /><line x1="575" y1="180" x2="575" y2="290" stroke="#a15430" stroke-width="2"  stroke-dasharray="4 4"/><polyline points="580,248 580,215 642.5,215 642.5,248 830,248" fill="none" stroke="#345d91" stroke-width="3" /><line x1="825" y1="180" x2="825" y2="290" stroke="#a15430" stroke-width="2"  stroke-dasharray="4 4"/><text x="80" y="315" font-size="17" fill="#243b47" text-anchor="start">示意：25% duty；更新事件与 ISR 开始之间可能有延迟。</text></g></svg>